<svg xmlns="http://www.w3.org/2000/svg" xmlns:xlink="http://www.w3.org/1999/xlink" viewBox="0 0 245 170"><defs><style>.cls-1{fill:url(#radial-gradient);}.cls-2{fill:#e5e5e5;}.cls-3{fill:#d2d3d6;}.cls-14,.cls-4{fill:#fff;}.cls-4,.cls-5{stroke:#d2d3d6;}.cls-4{stroke-miterlimit:10;}.cls-5{fill:#f7f7f7;stroke-linejoin:round;}.cls-6{fill:#ebebeb;}.cls-7,.cls-8{fill:#f6af33;}.cls-7{opacity:0.4;}.cls-8{opacity:0.5;}.cls-9{fill:#ef5454;}.cls-10{fill:#f85753;}.cls-11{mask:url(#mask);}.cls-12{fill:#0ac6bf;stroke:#fff;stroke-miterlimit:10;stroke-width:1.38px;}.cls-13{isolation:isolate;}.cls-15{fill:none;}</style><radialGradient id="radial-gradient" cx="2982.21" cy="577.91" r="11.33" gradientTransform="matrix(-0.79, 0, 0, -0.99, 2528.75, 703.74)" gradientUnits="userSpaceOnUse"><stop offset="0" stop-color="#fff"/><stop offset="0.16" stop-color="#fcfcfc"/><stop offset="0.29" stop-color="#f2f2f2"/><stop offset="0.41" stop-color="#e1e1e1"/><stop offset="0.52" stop-color="#c9c9c9"/><stop offset="0.63" stop-color="#aaa"/><stop offset="0.74" stop-color="#848484"/><stop offset="0.84" stop-color="#575757"/><stop offset="0.94" stop-color="#242424"/><stop offset="1"/></radialGradient><mask id="mask" x="163.15" y="126.92" width="18.38" height="6.67" maskUnits="userSpaceOnUse"><rect class="cls-1" x="163.37" y="126.92" width="18.16" height="3.55"/></mask></defs><g id="Layer_2" data-name="Layer 2"><g id="Layer_1-2" data-name="Layer 1"><polygon class="cls-2" points="178.55 67.38 178.11 119.6 34.86 124.06 34.86 67.38 178.55 67.38"/><path class="cls-3" d="M123.36,19.55,110.42,8.33a5.69,5.69,0,0,0-7.43,0L90.05,19.55,34.86,67.39H178.55Z"/><path class="cls-4" d="M51.23,156.05c5.12.33,10.25.49,15.38.62q30,.72,60-.83c11.16-.56,22.34-1,33.48-1.74,3.91-.27,7.81-.61,11.69-1.08V45.76l-22-22H52.21a10,10,0,0,0-10,10V155.52C45.22,155.62,48.22,155.86,51.23,156.05Z"/><path class="cls-5" d="M159.74,45.76h12l-22-22v12A10,10,0,0,0,159.74,45.76Z"/><rect class="cls-3" x="61.1" y="45.76" width="38.1" height="5.64"/><rect class="cls-3" x="61.08" y="61" width="90.03" height="5.64"/><rect class="cls-3" x="61.08" y="73.2" width="90.03" height="5.64"/><rect class="cls-3" x="61.08" y="85.41" width="90.03" height="5.64"/><rect class="cls-3" x="61.08" y="98.56" width="63.08" height="5.64"/><polygon class="cls-6" points="106.7 129.65 34.86 67.38 34.86 163.05 178.55 163.05 178.55 67.38 106.7 129.65"/><path class="cls-3" d="M123.36,115.21,110.42,104a5.69,5.69,0,0,0-7.43,0L90.05,115.21,34.86,163.05H178.55Z"/><polygon class="cls-7" points="124.16 114.52 123.94 114.71 124.16 114.52 124.16 114.52"/><polygon class="cls-8" points="89.25 114.52 89.45 114.7 89.25 114.52 89.25 114.52"/><path class="cls-9" d="M172.23,69.55h0a3.41,3.41,0,0,1-3.41-3.41V56.86a3.42,3.42,0,0,1,3.41-3.42h0a3.42,3.42,0,0,1,3.42,3.42v9.28A3.42,3.42,0,0,1,172.23,69.55Z"/><circle class="cls-10" cx="172.23" cy="126.77" r="9.08"/><path class="cls-10" d="M193.71,110.23V83.6a21.48,21.48,0,0,0-43,0v26.63c0,4.85-9.28,12.29-9.28,12.29H203S193.71,115.08,193.71,110.23Z"/><g class="cls-11"><rect class="cls-10" x="163.15" y="128.11" width="18.16" height="5.48"/></g><rect class="cls-9" x="141" y="122.48" width="62.45" height="5.67" rx="0.85"/><circle class="cls-12" cx="195.04" cy="94.51" r="15.1"/><g class="cls-13"><path class="cls-14" d="M190.93,94.73l.8-6.8h7.6v2.2h-5.4l-.3,2.9a4.55,4.55,0,0,1,2-.5,3.77,3.77,0,0,1,3,1.2,4.86,4.86,0,0,1,1.1,3.3,5.56,5.56,0,0,1-.5,2.3,4.1,4.1,0,0,1-1.6,1.6,4.75,4.75,0,0,1-2.4.6,5.93,5.93,0,0,1-2.3-.5,4.57,4.57,0,0,1-1.7-1.4,3.61,3.61,0,0,1-.6-2h2.6a2.26,2.26,0,0,0,.6,1.3,1.9,1.9,0,0,0,1.3.5,1.51,1.51,0,0,0,1.4-.7,3,3,0,0,0,.5-1.8,2.44,2.44,0,0,0-.6-1.8,2.11,2.11,0,0,0-1.6-.6,2.25,2.25,0,0,0-1.5.5l-.3.2Z"/></g><rect class="cls-15" width="245" height="170"/></g></g></svg>