<svg xmlns="http://www.w3.org/2000/svg" viewBox="0 0 245 170"><defs><filter id="sh38" x="-30%" y="-30%" width="160%" height="170%"><feDropShadow dx="0" dy="2.5" stdDeviation="3.4" flood-color="#2E3A4E" flood-opacity="0.13"></feDropShadow></filter></defs><rect x="50" y="34" width="146" height="92" rx="11" ry="11" fill="#FFFFFF" stroke="#E9ECEF" stroke-width="1" filter="url(#sh38)"></rect><rect x="64" y="48" width="40" height="4" rx="2" ry="2" fill="#E2E7EC"></rect><rect x="64" y="62" width="66" height="46" rx="5" ry="5" fill="#E8F7F5"></rect><path d="M68 100 L82 82 L94 92 L108 74 L126 84 L126 104 L68 104 Z" fill="#CDEDEA"></path><path d="M68 100 L82 82 L94 92 L108 74 L126 84" fill="none" stroke="#F1615C" stroke-width="2" stroke-linejoin="round" stroke-linecap="round"></path><rect x="140" y="76" width="7" height="16" rx="2" ry="2" fill="#1BB6AC"></rect><rect x="151" y="64" width="7" height="28" rx="2" ry="2" fill="#F1615C"></rect><rect x="162" y="70" width="7" height="22" rx="2" ry="2" fill="#1BB6AC"></rect><rect x="173" y="58" width="7" height="34" rx="2" ry="2" fill="#F1615C"></rect><path d="M170.24 56.00 A12 12 0 0 1 170.24 80.00 L170.12 74.00 A6 6 0 0 0 170.12 62.00 Z" fill="#1BB6AC"></path><path d="M169.76 80.00 A12 12 0 0 1 158.52 64.52 L164.26 66.26 A6 6 0 0 0 169.88 74.00 Z" fill="#F1615C"></path><path d="M158.66 64.06 A12 12 0 0 1 169.76 56.00 L169.88 62.00 A6 6 0 0 0 164.33 66.03 Z" fill="#FFC93C"></path></svg>