<svg xmlns="http://www.w3.org/2000/svg" viewBox="0 0 245 170"><defs><filter id="sh31" x="-30%" y="-30%" width="160%" height="170%"><feDropShadow dx="0" dy="2.5" stdDeviation="3.4" flood-color="#2E3A4E" flood-opacity="0.13"></feDropShadow></filter></defs><rect x="62" y="36" width="104" height="80" rx="9" ry="9" fill="#FFFFFF" stroke="#E9ECEF" stroke-width="1" filter="url(#sh31)"></rect><path d="M146 36 L166 56 L146 56 Z" fill="#EDF1F4"></path><rect x="78" y="54" width="50" height="4" rx="2" ry="2" fill="#1BB6AC"></rect><rect x="78" y="68" width="72" height="3.2" rx="1.6" ry="1.6" fill="#E2E7EC"></rect><rect x="78" y="78" width="72" height="3.2" rx="1.6" ry="1.6" fill="#E2E7EC"></rect><rect x="78" y="88" width="54" height="3.2" rx="1.6" ry="1.6" fill="#E2E7EC"></rect><rect x="78" y="98" width="64" height="3.2" rx="1.6" ry="1.6" fill="#E2E7EC"></rect><g><circle cx="164" cy="110" r="16" fill="#FFFFFF" filter="url(#sh31)"></circle><circle cx="164" cy="110" r="14" fill="#FFC93C"></circle></g><g transform="translate(164,110) rotate(45)"><rect x="-2.4" y="-8" width="4.8" height="14" rx="1.5" ry="1.5" fill="#FFFFFF"></rect><path d="M-2.4 6 l2.4 4 l2.4 -4 Z" fill="#FFFFFF"></path><rect x="-2.4" y="-8" width="4.8" height="3.4" rx="1" ry="1" fill="#2E3A4E"></rect></g></svg>