<svg xmlns="http://www.w3.org/2000/svg" viewBox="0 0 245 170"><defs><filter id="sh32" x="-30%" y="-30%" width="160%" height="170%"><feDropShadow dx="0" dy="2.5" stdDeviation="3.4" flood-color="#2E3A4E" flood-opacity="0.13"></feDropShadow></filter></defs><rect x="70" y="40" width="108" height="40" rx="9" ry="9" fill="#FFFFFF" stroke="#E9ECEF" stroke-width="1" filter="url(#sh32)"></rect><g><circle cx="86" cy="56" r="7" fill="#DCE1E7"></circle><clipPath id="cl33"><circle cx="86" cy="56" r="7"></circle></clipPath><g clip-path="url(#cl33)"><circle cx="86" cy="54.74" r="2.1" fill="#C3CBD4"></circle><circle cx="86" cy="60.2" r="3.36" fill="#C3CBD4"></circle></g></g><rect x="100" y="49" width="60" height="3.6" rx="1.8" ry="1.8" fill="#1BB6AC"></rect><rect x="100" y="57" width="74" height="3.2" rx="1.6" ry="1.6" fill="#E2E7EC"></rect><path d="M118 80 l7 9 l7 -9 Z" fill="#FFFFFF"></path><path d="M53.14 111.6 L60.62 116 L53.14 120.4 Z" fill="#C3CBD4"></path><rect x="72" y="113" width="108" height="6" rx="3" ry="3" fill="#E2E7EC"></rect><rect x="72" y="113" width="52" height="6" rx="3" ry="3" fill="#1BB6AC"></rect><g><circle cx="124" cy="116" r="11" fill="#FFFFFF" filter="url(#sh32)"></circle><circle cx="124" cy="116" r="9" fill="#FFC93C"></circle></g><path d="M124 110 a5 5 0 0 1 5 5 c0 3 -2 3.4 -2 5 l-6 0 c0 -1.6 -2 -2 -2 -5 a5 5 0 0 1 5 -5 Z" fill="#FFFFFF"></path><rect x="121.4" y="119.6" width="5.2" height="2" rx="1" ry="1" fill="#FFFFFF"></rect></svg>